<?xml version="1.0" encoding="utf-8"?>
<!-- Generator: Adobe Illustrator 18.0.0, SVG Export Plug-In . SVG Version: 6.00 Build 0)  -->
<!DOCTYPE svg PUBLIC "-//W3C//DTD SVG 1.1//EN" "http://www.w3.org/Graphics/SVG/1.1/DTD/svg11.dtd">
<svg version="1.1" id="Layer_1" xmlns="http://www.w3.org/2000/svg" xmlns:xlink="http://www.w3.org/1999/xlink" x="0px" y="0px"
	 viewBox="0 0 1700 1400" enable-background="new 0 0 1700 1400" xml:space="preserve">
<g>
	<rect fill="#003240" width="1700" height="1400"/>
	<g>
		<g>
			<defs>
				<path id="SVGID_11_" d="M973.6,1221.3c-53.2,28.2-107.6,56.8-167,66.3c-59.4,9.5-125.9-3.5-166.4-48
					c-14.1-15.4-24.5-33.9-39.3-48.7c-34-34-85.7-43.1-133.9-42.7s-96.4,8.7-144.1,2.1c-47.7-6.6-96.9-32.3-113.2-77.6
					c-31.2-86.4,71.7-172.7,56.6-263.3c-11-65.9-82.9-121-63.8-185c17.5-58.8,99.2-73.7,127.6-128.1c24.8-47.5,0-104.4-4.1-157.8
					c-5.3-69.8,29.4-141.3,87.5-180.4c22.4-15.1,49.5-25.8,76.2-21.7c6,0.9,11.9,2.8,17.5,5.4c34.4,16.1,74.6,13.3,107.5-5.8
					c14.1-8.2,28.8-15,44.4-19.9c44.5-13.7,98.7-6.8,128.5,29c15.4,18.5,22.8,42.6,38.5,60.8c28.4,33,78.4,39.6,120.7,29.1
					c42.3-10.5,79.5-34.9,117.7-55.9s80.4-39.3,123.8-35.7c43.4,3.6,87.2,35.9,89.7,79.5c1.9,33.4-19.7,66.2-12.4,98.8
					c9.5,42.4,61.3,59.5,104.7,58.7c43.4-0.8,89-11.4,128.8,6c47.1,20.6,70.9,76.2,69.6,127.6s-22.8,99.8-44.1,146.6
					c-21.3,46.8-43.2,94.9-45.6,146.3c-1.8,40.1,8.1,82.3-7.6,119.2c-16.2,38.1-55.5,60.3-92.1,79.7
					C1244.3,1077.7,1109,1149.5,973.6,1221.3z"/>
			</defs>
			<clipPath id="SVGID_2_">
				<use xlink:href="#SVGID_11_"  overflow="visible"/>
			</clipPath>
			<g clip-path="url(#SVGID_2_)">
				<g>
					<rect x="185.4" y="0.8" fill="#003240" width="1400" height="1400"/>
					<circle fill="#104D58" cx="885.4" cy="700.8" r="689.6"/>
					<path fill="#2A6F79" d="M885.4,1200.4c-133.4,0-258.9-52-353.2-146.3S385.9,834.3,385.9,700.8c0-133.4,52-258.9,146.3-353.2
						S752,201.3,885.4,201.3s258.9,52,353.2,146.3S1385,567.4,1385,700.8c0,133.4-52,258.9-146.3,353.2S1018.8,1200.4,885.4,1200.4z
						"/>
					<path fill="#458D98" d="M885.4,1010.4c-41.3,0-81.2-7.8-118.6-23.3c-37.3-15.5-71.1-38.1-100.3-67.4
						c-29.2-29.2-51.9-63-67.4-100.3s-23.3-77.2-23.3-118.6c0-41.3,7.8-81.2,23.3-118.6c15.5-37.3,38.1-71.1,67.4-100.3
						c29.2-29.2,63-51.9,100.3-67.4c37.3-15.5,77.2-23.3,118.6-23.3s81.2,7.8,118.6,23.3c37.3,15.5,71.1,38.1,100.3,67.4
						c29.2,29.2,51.9,63,67.4,100.3c15.5,37.3,23.3,77.2,23.3,118.6c0,41.3-7.8,81.2-23.3,118.6c-15.5,37.3-38.1,71.1-67.4,100.3
						s-63,51.9-100.3,67.4C966.6,1002.5,926.7,1010.4,885.4,1010.4z"/>
				</g>
				<path fill="#2A6F79" d="M405.9,550.5c-15.9-33.1-50-51.6-84.5-49.1L391,647.1C414.7,621.8,421.7,583.6,405.9,550.5z"/>
				<path fill="#2A6F79" d="M343.3,628.6c-15.6-13.2-37.1-14.7-54.1-5.5l68.7,57.9C364.1,662.7,358.9,641.7,343.3,628.6z"/>
				<polygon fill="#003240" points="1370.3,99.8 1538.4,865.7 1431.8,1161.8 1669.4,1161.8 1669.4,740.2 1473.5,99.8 				"/>
				<g>
					<path fill="#003240" d="M551.8,139.3C524.6,85.8,468,57,411.7,62.5l119.8,235.3C569.1,255.5,579.1,192.8,551.8,139.3z"/>
					<path fill="#003240" d="M604.2,79.1c-47-37.3-110.4-40-159.4-11.6l206.8,164.2C668.2,177.6,651.2,116.5,604.2,79.1z"/>
					<path fill="#003240" d="M488.9,188.3c5.7-59.8-26.6-114.4-77.1-139.9l-25,262.8C441.2,295.7,483.2,248.1,488.9,188.3z"/>
				</g>
				<g>
					<path fill="#104D58" d="M573.8,356.2c-16.1-31.6-49.5-48.6-82.8-45.4l70.8,139C584,424.9,589.9,387.8,573.8,356.2z"/>
					<path fill="#104D58" d="M604.7,320.7c-27.8-22.1-65.2-23.6-94.2-6.8l122.2,97C642.6,378.9,632.5,342.7,604.7,320.7z"/>
					<path fill="#104D58" d="M536.6,385.2c3.4-35.3-15.7-67.6-45.6-82.7l-14.8,155.3C508.4,448.6,533.2,420.5,536.6,385.2z"/>
				</g>
				<g>
					<path fill="#104D58" d="M1371,605.8c21.1-28.5,21.5-66,3.8-94.3l-92.9,125.3C1314.1,645.6,1349.9,634.3,1371,605.8z"/>
					<path fill="#104D58" d="M1416.7,617.7c7.4-34.7-7.9-68.9-35.8-87.4L1348.4,683C1381.4,677.5,1409.3,652.4,1416.7,617.7z"/>
					<path fill="#104D58" d="M1328.5,585.4c33.1-12.7,53.5-44.2,53.8-77.6l-145.6,55.9C1259.2,588.4,1295.4,598.2,1328.5,585.4z"/>
				</g>
				<g>
					<path fill="#2A6F79" d="M1204.1,810.6c21.1-28.5,21.5-66,3.8-94.3l-92.9,125.3C1147.2,850.3,1183,839.1,1204.1,810.6z"/>
					<path fill="#2A6F79" d="M1249.7,822.5c7.4-34.7-7.9-68.9-35.8-87.4l-32.4,152.6C1214.5,882.3,1242.4,857.2,1249.7,822.5z"/>
					<path fill="#2A6F79" d="M1161.6,790.2c33.1-12.7,53.5-44.2,53.8-77.6l-145.6,55.9C1092.3,793.2,1128.5,802.9,1161.6,790.2z"/>
				</g>
				<g>
					<path fill="#003240" d="M1366.8,1053.7c29.8,58.5,91.6,90,153.2,84l-131-257.2C1347.9,926.7,1337,995.2,1366.8,1053.7z"/>
					<path fill="#003240" d="M1309.5,1119.5c51.4,40.8,120.7,43.7,174.2,12.7l-226.1-179.5
						C1239.5,1011.8,1258.1,1078.7,1309.5,1119.5z"/>
					<path fill="#003240" d="M1435.7,1000.1c-6.2,65.3,29.1,125,84.3,153l27.3-287.4C1487.8,882.8,1441.9,934.7,1435.7,1000.1z"/>
				</g>
				<g>
					<path fill="#003240" d="M1341.1,141c43.6-41.3,55.1-103.7,33.9-156.1l-191.6,181.6C1234.6,190.5,1297.5,182.3,1341.1,141z"/>
					<path fill="#003240" d="M1413.6,174.2c22.5-55.7,7.1-117.2-34.1-156.1L1280.8,263C1337.4,263.5,1391.2,229.9,1413.6,174.2z"/>
					<path fill="#003240" d="M1276.2,94.6c58.9-11.5,102.1-57.9,112.3-113.6l-259.1,50.6C1159.8,79.3,1217.3,106.1,1276.2,94.6z"/>
				</g>
				<g>
					<path fill="#003240" d="M801.6-43.2C789.5,57.3,741.9,151,674.9,226c-72,80.5-166.1,137.4-268.5,170.6
						c-102.5,33.2-211.7,42.8-318.8,34.9c-9.7-0.7-9.6,14.3,0,15c114.7,8.4,231.8-3.3,340.7-41.5C529.7,369.4,622,310,692.5,228.5
						c66.3-76.5,111.9-170.8,124-271.7c0.5-4.1-3.8-7.5-7.5-7.5C804.6-50.7,802-47.2,801.6-43.2L801.6-43.2z"/>
				</g>
				<g>
					<path fill="#003240" d="M1011-56.2c-35.2,95.2-93.6,181-167.5,250.3c-77,72.2-171,124.8-272.9,152.2
						c-111.5,29.9-230.7,29.6-342.1-0.3c-26.8-7.2-53.1-16.2-78.7-26.8c-3.8-1.6-8.2,1.7-9.2,5.2c-1.2,4.3,1.5,7.7,5.2,9.2
						c107,44.2,225.4,58.9,340.1,44.3c108.9-13.8,213-54.6,302-118.9c82.6-59.7,151.5-138.1,199.8-227.8
						c14.5-26.9,27.1-55,37.7-83.7C1028.8-61.3,1014.3-65.2,1011-56.2L1011-56.2z"/>
				</g>
				<g>
					<path fill="#003240" d="M1080.1-37.5c22.5,105.4,72.9,204.1,144,285c73.2,83.2,169.1,145,274.3,179.6
						c49.8,16.4,101.8,26.3,154.2,29.8c9.7,0.6,9.6-14.4,0-15c-111.2-7.3-219.4-45.9-310.9-109.4
						c-88.9-61.7-159.4-148.1-204.7-246.1c-18.9-40.8-33-83.9-42.4-127.9C1092.6-51,1078.1-47,1080.1-37.5L1080.1-37.5z"/>
				</g>
				<g>
					<path fill="#104D58" d="M153.8,518.3c115.7,18.5,234.7,11.6,347.7-19.6c56.3-15.6,111-37.4,162.6-64.7
						c46.6-24.7,91.1-54.8,127.9-92.8c38.4-39.6,65.4-87.6,78.5-141.3c14-57.5,13.3-117.6,11.1-176.4c-0.2-6.5-0.5-13-0.8-19.5
						c-0.4-9.6-15.4-9.7-15,0c2.4,58.8,4.7,118.4-6.5,176.5c-5.4,28.2-14.3,55.7-27.6,81.2c-12,23-27.4,44.1-45,63.2
						c-35.7,38.8-79.9,68.9-126.1,93.9c-51.2,27.7-105.5,49.2-161.5,65c-110.5,31-228,38.2-341.4,20.1c-4-0.6-8.1,1-9.2,5.2
						C147.6,512.6,149.7,517.6,153.8,518.3L153.8,518.3z"/>
				</g>
				<g>
					<path fill="#104D58" d="M107.9,593.3c118,35,244.6,41.3,364.8,13.4c104.2-24.1,201.9-75.7,280.1-148.8
						c80-74.8,136.3-172.9,159-280.1c14.5-68.5,14.9-139.8,0-208.2c-2.1-9.4-16.5-5.4-14.5,4c23.9,109.1,6.4,225.1-43.3,324.7
						c-47.4,95.1-124.6,172.9-215.9,226.5c-99.1,58.3-213.5,85.5-328.2,84.3c-67-0.7-133.8-11.3-198-30.4
						C102.6,576.1,98.6,590.5,107.9,593.3L107.9,593.3z"/>
				</g>
				<g>
					<path fill="#003240" d="M59.8,531.1c138.4,16.8,279,20.7,417.5,2.3c129.8-17.2,257.6-54.4,372.3-118.3
						c100.6-56,190.5-131.8,259.9-223.8c48.8-64.6,86.3-137.7,108.8-215.6c2.7-9.3-11.8-13.3-14.5-4
						c-31.7,110-94.3,208.5-174.6,289.4c-81.1,81.6-180,145.6-286.6,188.6c-129.1,52.1-268.1,75.6-406.8,80
						c-92.2,2.9-184.5-2.6-276-13.7c-4.1-0.5-7.5,3.8-7.5,7.5C52.3,528.1,55.8,530.7,59.8,531.1L59.8,531.1z"/>
				</g>
				<g>
					<path fill="#003240" d="M971.4-45.5c44.2,106.1,97,209.2,164.8,302.4c65.8,90.2,145.8,169.9,240.6,229.4
						c83.3,52.3,177.3,87.8,275.4,98.3c4.1,0.4,7.5-3.7,7.5-7.5c0-4.4-3.4-7.1-7.5-7.5c-108.1-11.5-210.4-55.2-299.2-117
						c-92.1-64.1-168.2-148.5-230.4-241.3c-54.7-81.7-99-170.1-136.7-260.7c-1.6-3.8-4.9-6.4-9.2-5.2
						C973.1-53.7,969.8-49.3,971.4-45.5L971.4-45.5z"/>
				</g>
				<path fill="#104D58" d="M1005.6,230.1c21.6-29.7,21.5-68.5,2.9-97.7l-94.9,130.7C947.1,271.9,984,259.9,1005.6,230.1z"/>
				<path fill="#458D98" d="M793.7,338.5c-15.8-33.1-49.9-51.6-84.5-49.2l69.6,145.8C802.4,409.8,809.5,371.6,793.7,338.5z"/>
				<path fill="#2A6F79" d="M784.7,945.4c26.9-25,34.3-63.1,21.5-95.4L688.1,960.2C719.3,975.1,757.8,970.4,784.7,945.4z"/>
				<path fill="#458D98" d="M953.9,375.9c-18.1,9.4-27.7,28.7-25.7,47.9l79.6-41.5C993.3,369.6,972,366.4,953.9,375.9z"/>
				<path fill="#458D98" d="M1075.4,362.7c-11.8-16.7-32.2-23.6-50.9-19l51.9,73.3C1086.9,400.9,1087.2,379.3,1075.4,362.7z"/>
				<path fill="#2A6F79" d="M691.4,909.1c7.9-18.8,2.9-39.8-10.9-53.2l-34.7,82.8C665.1,939.1,683.6,927.9,691.4,909.1z"/>
				<path fill="#104D58" d="M1315.4,720.8c-12.7-16-33.5-21.8-51.9-16.2l55.8,70.4C1329,758.4,1328.1,736.8,1315.4,720.8z"/>
				<path fill="#104D58" d="M494.4,951c16.7-26.6,14.4-59.8-3.2-83.6l-73.5,117.1C446.9,990,477.7,977.6,494.4,951z"/>
				<path fill="#104D58" d="M1348.9,853.7c31.3,2.3,59.6-15.2,72.4-41.9l-137.9-10.2C1292.2,829.9,1317.6,851.4,1348.9,853.7z"/>
				<path fill="#458D98" d="M1220.5,695c26.8-12,42.3-38.9,41-66.6l-118,52.7C1163.3,700.6,1193.7,707,1220.5,695z"/>
				<path fill="#458D98" d="M820.1,1039.7c26.8-12,42.3-38.9,41-66.6l-118,52.7C762.9,1045.2,793.3,1051.7,820.1,1039.7z"/>
				<g>
					<path fill="#003240" d="M238.9,971.7c-53.5,27.2-82.3,83.8-76.8,140.1L397.4,992C355,954.4,292.4,944.5,238.9,971.7z"/>
					<path fill="#003240" d="M178.7,919.3c-37.3,47-40,110.4-11.6,159.4l164.2-206.8C277.2,855.3,216,872.3,178.7,919.3z"/>
					<path fill="#003240" d="M287.9,1034.7c-59.8-5.7-114.4,26.6-139.9,77.1l262.8,25C395.2,1082.4,347.7,1040.4,287.9,1034.7z"/>
				</g>
			</g>
		</g>
		<g>
			<g>
				<g>
					<path fill="#952636" d="M637.4,1047.2c-5.6-2.1-11.5-5.4-17.2-3.5c-7.7,2.7-9.7,13.4-16.9,17.2c-5.9,3.2-13.3,0.6-18.9-3.1
						c-5.6-3.7-10.7-8.5-17.1-10.3c-2.9-0.8-6.2-0.7-9,0.3c1,14.6,2.5,28.7,4.5,42.4c0.4-0.1,0.8-0.2,1.2-0.3
						c7.3-1.5,14.7,0.8,21.8,3.2c7,2.4,14.3,5,21.7,4.1c16.4-1.9,26.8-19.9,42.9-23.7c1.6-0.4,3.1-0.6,4.7-0.7
						c-0.8-7.1-1.7-14.7-2.5-22.8C647.4,1050,642.2,1049.1,637.4,1047.2z"/>
					<path fill="#CB3734" d="M598.9,1001.5c6.4,3.8,12.3,9.7,19.7,9.5c7.8-0.2,13.4-7.1,19.9-11.4c2.7-1.8,5.6-3,8.7-3.9
						c-8-91.4-14.2-210.3-3.8-293.1l-51.7-33.8c0,0-38.1,178.5-35.3,336.4C568.1,995.7,585.9,993.8,598.9,1001.5z"/>
					<path fill="#AF2E33" d="M567.3,1047.6c6.5,1.8,11.5,6.6,17.1,10.3c5.6,3.7,13,6.2,18.9,3.1c7.2-3.8,9.2-14.6,16.9-17.2
						c5.6-2,11.6,1.3,17.2,3.5c4.8,1.9,10,2.8,15.1,2.9c-1.8-16.5-3.6-34.8-5.3-54.5c-3.1,0.8-6,2.1-8.7,3.9
						c-6.5,4.3-12.1,11.1-19.9,11.4c-7.4,0.2-13.3-5.7-19.7-9.5c-13-7.7-30.8-5.7-42.4,3.7c0.3,14.5,0.9,28.8,1.9,42.7
						C561.2,1046.9,564.5,1046.8,567.3,1047.6z"/>
					<path fill="#771C36" d="M607.5,1097.3c-7.4,0.9-14.7-1.7-21.7-4.1c-7-2.4-14.5-4.7-21.8-3.2c-0.4,0.1-0.8,0.2-1.2,0.3
						c2.3,15.6,5.2,30.5,8.9,44.5l90-10c-1.3-8.4-3.8-26.8-6.7-51.9c-1.6,0.1-3.1,0.3-4.7,0.7
						C634.3,1077.4,623.9,1095.4,607.5,1097.3z"/>
				</g>
				<polygon fill="#D6C2B2" points="571.8,1134.8 613.9,1227 605.3,1131.1 				"/>
				<polygon fill="#C4AFA1" points="592.8,1132.5 634.6,1233.1 631.9,1128.2 				"/>
				<polygon fill="#B29586" points="619.9,1129.5 669.2,1211 661.8,1124.8 				"/>
			</g>
			<g>
				<g>
					<path fill="#4E0F1F" d="M1066.5,1020.7c-10.5,2.7-13.1,17.7-23.1,21.7c-9.5,3.8-19.2-4.1-28.8-7.7c-11.9-4.5-25.9-1-35.5,7.2
						c2.8,14,6.2,27.4,10.5,39.9l102-24c0,0-4.3-13.2-10-34.6C1076.5,1021.5,1071.5,1019.5,1066.5,1020.7z"/>
					<path fill="#771C36" d="M1067.6,978.3c-9.2,5.8-16.4,15.4-26.9,18.3c-8.2,2.3-16.9,0.1-25-2.5c-8.1-2.6-16.4-5.5-24.8-4.8
						c-7.8,0.7-15.7,5.6-17.7,12.9c1.5,13.6,3.5,26.9,6,39.7c9.6-8.2,23.6-11.7,35.5-7.2c9.6,3.6,19.3,11.5,28.8,7.7
						c10-4,12.7-19,23.1-21.7c5-1.3,10,0.8,15,2.5c-3.5-12.8-7.5-28.6-11.4-46.3C1069.2,977.3,1068.4,977.8,1067.6,978.3z"/>
					<path fill="#AF2E33" d="M990.8,989.3c8.5-0.8,16.7,2.2,24.8,4.8c8.1,2.6,16.8,4.8,25,2.5c10.5-2.9,17.7-12.4,26.9-18.3
						c0.8-0.5,1.6-1,2.5-1.4c-15.3-68.1-30.1-164.8-11.5-231.3l-55.5-23.7c-21.4,41.6-41.9,171-30,280.4
						C975.1,994.9,983.1,990,990.8,989.3z"/>
				</g>
				<polygon fill="#D6C2B2" points="989.5,1081.8 1047.2,1164.3 1030.5,1072.2 				"/>
				<polygon fill="#C4AFA1" points="1014.1,1076 1070.9,1169.7 1058,1065.7 				"/>
				<polygon fill="#B29586" points="1047.2,1068.3 1100.9,1151.8 1091.5,1057.8 				"/>
			</g>
			<g>
				<path fill="#876666" d="M541.1,918.4c-19.2-13.1-44.5-14.8-67.2-9.3c-10.2,2.5-20,6.3-29.4,10.8c41.7,11.7,83.1,21.4,124.1,29.2
					C561,937.3,552.5,926.2,541.1,918.4z"/>
				<path fill="#876666" d="M737.5,971c60.5,4.1,120.2,4.2,179.3,0.5c-23.6-9.8-47.6-18.4-72.4-20.9
					C807.8,946.9,772,956.8,737.5,971z"/>
				<path fill="#876666" d="M270.6,822c-18.1-12.3-36.4-24.7-56.9-32.4c-15.7-5.9-32.6-9-46.8-17.9c-13.2-8.3-22.8-21.8-27.4-36.7
					c-2.7,4.8-4.8,9.7-6.2,14.6c-5.3,18.1-1.9,38.6,8.9,54.1c41.1,20.1,81.8,38.2,122.2,54.6c28.6,11.6,57,22.3,85.3,32
					c-3.2-4.5-6.7-8.7-10.3-12.8C319.7,855.4,295.1,838.6,270.6,822z"/>
				<path fill="#876666" d="M333.6,772.1c17.7,5.5,37.7,5.1,52.9,15.6c17.7,12.2,25,36.6,44.1,46.5c27.6,14.4,59.2-9.4,90.1-13.4
					c52.3-6.7,95.3,43.6,147.5,50.6c53.7,7.2,102.1-32.2,155.3-42.5c82.2-15.9,166,38.7,248.1,22.3c64.7-13,114.8-67.8,179.3-81.6
					c32.1-6.8,65.7-3,97.7-10c59.1-12.9,103.4-59.9,150.7-97.7c11.2-9,23.4-17.6,36.2-25.2c10-22.8,19.3-46.1,25.5-70
					C1185,782,725.3,845.1,304.5,743.2C306.5,756.1,320,767.8,333.6,772.1z"/>
				<path fill="#A18282" d="M1535.7,636.8c-12.8,7.6-25,16.2-36.2,25.2c-47.2,37.8-91.6,84.8-150.7,97.7c-32,7-65.7,3.1-97.7,10
					c-64.6,13.7-114.6,68.6-179.3,81.6c-82.1,16.5-165.9-38.2-248.1-22.3c-53.2,10.3-101.6,49.7-155.3,42.5
					c-52.2-7-95.3-57.4-147.5-50.6c-30.9,4-62.5,27.7-90.1,13.4c-19.1-9.9-26.4-34.3-44.1-46.5c-15.3-10.5-35.3-10.1-52.9-15.6
					c-13.6-4.3-27.1-16-29.2-28.9c-16.3-4-32.6-8.2-48.8-12.6c-4.7,13.6-0.4,30.8,9.6,41.9c13.1,14.6,32.8,21.2,51.9,26
					c19.1,4.7,39,8.4,55.4,19.2c20.1,13.1,33.6,35.9,56,44.4c33.4,12.7,71.6-11.4,106-1.7c39.6,11.1,56.3,60.9,94,77.3
					c37.8,16.4,80.5-6.4,114.1-30.3c33.6-23.9,71.6-51,112.1-43.1c50.6,9.8,79.4,70.2,130,80.2c35,6.9,69.6-12.6,97.9-34.4
					c28.3-21.7,55.8-47.3,90.6-55.4c42.4-9.9,87.1,8.3,130.1,1.7c46.8-7.2,83.7-41.7,121.6-70c19.1-14.3,41.1-27.4,63.8-34.8
					c8.9-31.2,22.6-61.4,36.1-91.1C1528.5,652.7,1532.1,644.8,1535.7,636.8z"/>
				<path fill="#876666" d="M1230.3,895.5c-46.8,6.8-91.9,24.9-130.4,52.3c69.7-13.6,138.7-32.3,207-55.6
					C1281.1,891.5,1255.5,891.9,1230.3,895.5z"/>
				<path fill="#AA8D8D" d="M1303.4,856.5c-43.1,6.6-87.7-11.6-130.1-1.7c-34.8,8.1-62.3,33.6-90.6,55.4
					c-28.3,21.7-62.9,41.3-97.9,34.4c-50.6-10-79.4-70.4-130-80.2c-40.5-7.8-78.4,19.3-112.1,43.1c-33.6,23.9-76.3,46.7-114.1,30.3
					c-37.7-16.4-54.5-66.1-94-77.3c-34.4-9.7-72.6,14.4-106,1.7c-22.4-8.5-35.9-31.3-56-44.4c-16.4-10.7-36.3-14.4-55.4-19.2
					c-19.1-4.7-38.8-11.3-51.9-26c-10-11.2-14.4-28.3-9.6-41.9c-9.7-2.7-19.3-5.4-28.9-8.2c-18.6-5.5-37.1-11.3-55.5-17.4
					c-12.8,5.3-24.3,17-31.6,30c4.5,14.9,14.1,28.4,27.4,36.7c14.2,8.9,31.1,12,46.8,17.9c20.5,7.7,38.8,20.1,56.9,32.4
					c24.4,16.6,49.1,33.4,68.8,55.4c3.6,4.1,7.1,8.3,10.3,12.8c31.8,11,63.4,20.9,94.7,29.6c9.5-4.6,19.2-8.4,29.4-10.8
					c22.6-5.5,47.9-3.8,67.2,9.3c11.4,7.8,19.9,19,27.5,30.7c57,10.9,113.3,18.1,169,21.9c34.4-14.2,70.3-24.1,106.9-20.4
					c24.9,2.5,48.8,11.1,72.4,20.9c61.6-3.9,122.6-11.8,182.9-23.6c38.6-27.4,83.6-45.5,130.4-52.3c25.2-3.6,50.8-4,76.6-3.3
					c57.9-19.7,115.3-42.7,172.4-68.7c-0.1-5.6-0.1-11.1,0.2-16.6c0.9-18.8,4.4-37.2,9.5-55.2c-22.7,7.4-44.7,20.5-63.8,34.8
					C1387.1,814.8,1350.2,849.3,1303.4,856.5z"/>
			</g>
			<g>
				<g>
					<path fill="#AF2E33" d="M759.6,618c42.9-32.2,75.4-75.9,110-116.8c34.6-40.9,73.5-80.7,123.2-100.9
						c25.2-10.2,52.5-14.8,79.6-13.8c-60.6-22.3-126.2-18.6-178.6,14c-40.5,25.2-70.8,64.6-98.6,103.4
						c-27.1,37.7-52.8,75.6-86.6,102c-24.9,19.5-55.4,32.7-89.1,33.3l6.6,19.3C672.6,665.4,721.4,646.7,759.6,618z"/>
					<path fill="#CB3734" d="M757.4,663.9c45-18.7,84.7-47.9,123.9-76.9s78.7-58.4,123.6-77.5c62.2-26.4,133.2-31.3,198.6-14.3
						c-15.6-24.6-34.7-46.9-56.7-65.4c-22.8-19.2-48.1-33.7-74.3-43.4c-27.1-1-54.5,3.6-79.6,13.8c-49.7,20.2-88.5,60-123.2,100.9
						c-34.6,40.9-67.2,84.6-110,116.8c-38.2,28.7-87,47.4-133.6,40.5l7,20.7C674.2,687.8,718.2,680.1,757.4,663.9z"/>
					<g>
						<path fill="#DC4D3C" d="M1004.8,509.5C960,528.6,920.4,558,881.3,587s-78.9,58.2-123.9,76.9c-39.1,16.2-83.2,23.9-124.3,15.2
							l37.2,109.2c142.8,2,286-19.1,422.1-62.4c57-18.1,114.5-41.2,160-79.3c-2.6-52.1-19.9-105.7-49-151.3
							C1138,478.2,1067,483.1,1004.8,509.5z"/>
						<path fill="#AF2E33" d="M670.2,788.4l6.5,19.1c127.1,10.9,325.3-4.4,441.3-37.4c25.7-7.3,51.4-15.8,74.8-29.6
							c23.7-14,56.8-30.3,59.1-60.8c0.8-10.9,0.9-21.9,0.3-33.1c-45.5,38.1-102.9,61.2-160,79.3
							C956.2,769.2,813.1,790.4,670.2,788.4z"/>
					</g>
				</g>
				<g>
					<path fill="#DC4D3C" d="M549.8,813.1c-55.9,0-101.7-44.2-104.1-99.5c-2.7-59.6,46-108.9,105.6-108.9h115.6
						c59.6,0,108.3,49.4,105.6,108.9c-2.5,55.3-48.2,99.5-104.1,99.5H549.8z"/>
					<g>
						<path fill="#422E2D" d="M552.7,755.8l-41.3-72.3c-19.7,23-27.1,59.9-25.5,84.7c6.3,9.2,14.5,17,24,22.8
							C513.5,782.2,527.2,763,552.7,755.8z"/>
						<path fill="#FAF6E9" d="M745.6,724.8c0-42.7-34.6-77.2-77.2-77.2H549.8c-42.7,0-77.2,34.6-77.2,77.2v0
							c0,16,4.9,30.9,13.3,43.3c-1.6-24.8,5.8-61.7,25.5-84.7l41.3,72.3c-25.5,7.2-39.1,26.4-42.8,35.2c11.7,7.1,25.3,11.1,40,11.1
							h118.5c13.9,0,27-3.7,38.3-10.2c-3-8.2-16.7-28.7-43.2-36.1l41.3-72.3c20.6,24,27.8,63.1,25.2,87.9
							C739.8,758.4,745.6,742.3,745.6,724.8L745.6,724.8z"/>
						<path fill="#422E2D" d="M704.8,683.4l-41.3,72.3c26.4,7.5,40.1,27.9,43.2,36.1c9.1-5.2,17.1-12.2,23.4-20.6
							C732.5,746.6,725.4,707.5,704.8,683.4z"/>
					</g>
					<g>
						<path fill="#422E2D" d="M584,709.9c-2.2-21.7-20.5-38.5-42.8-38.5s-40.5,16.9-42.8,38.5c-0.2,1.5-0.2,3-0.2,4.5
							c0,23.7,19.3,43,43,43c23.7,0,43-19.3,43-43C584.2,712.8,584.1,711.3,584,709.9z"/>
						<g>
							<path fill="#FFFFFF" d="M514,711.5c-0.1,0.9-0.1,1.9-0.1,2.8c0,15.1,12.2,27.3,27.3,27.3s27.3-12.2,27.3-27.3
								c0-1-0.1-1.9-0.1-2.8H514z"/>
							<path fill="#422E2D" d="M561.9,712.2c-1.1-10.5-9.9-18.7-20.7-18.7s-19.6,8.2-20.7,18.7c-0.1,0.7-0.1,1.4-0.1,2.2
								c0,11.5,9.3,20.8,20.8,20.8s20.8-9.3,20.8-20.8C562,713.6,562,712.9,561.9,712.2z"/>
							<circle fill="#FFFFFF" cx="529.6" cy="713.3" r="5.6"/>
							<circle fill="#FFFFFF" cx="532.8" cy="723.6" r="2.4"/>
							<path fill="#D6C2B2" d="M541.2,687c-14.1,0-25.8,10.7-27.2,24.5h54.4C567,697.7,555.3,687,541.2,687z"/>
						</g>
						<path fill="#422E2D" d="M632.1,709.9c2.2-21.7,20.5-38.5,42.8-38.5c22.2,0,40.5,16.9,42.8,38.5c0.2,1.5,0.2,3,0.2,4.5
							c0,23.7-19.3,43-43,43c-23.7,0-43-19.3-43-43C631.9,712.8,632,711.3,632.1,709.9z"/>
						<g>
							<path fill="#FFFFFF" d="M647.7,711.5c-0.1,0.9-0.1,1.9-0.1,2.8c0,15.1,12.2,27.3,27.3,27.3s27.3-12.2,27.3-27.3
								c0-1-0.1-1.9-0.1-2.8H647.7z"/>
							<path fill="#422E2D" d="M695.6,712.2c-1.1-10.5-9.9-18.7-20.7-18.7s-19.6,8.2-20.7,18.7c-0.1,0.7-0.1,1.4-0.1,2.2
								c0,11.5,9.3,20.8,20.8,20.8s20.8-9.3,20.8-20.8C695.7,713.6,695.7,712.9,695.6,712.2z"/>
							<circle fill="#FFFFFF" cx="663.3" cy="713.3" r="5.6"/>
							<circle fill="#FFFFFF" cx="666.5" cy="723.6" r="2.4"/>
							<path fill="#D6C2B2" d="M674.9,687c-14.1,0-25.8,10.7-27.2,24.5h54.4C700.6,697.7,689,687,674.9,687z"/>
						</g>
					</g>
					<path fill="#422E2D" d="M586.4,736.4c0,10.9,8.8,19.7,19.7,19.7h6c10.9,0,19.7-8.8,19.7-19.7H586.4z"/>
					<path fill="#EE3437" d="M565.1,759.9c0,21.1,17.1,38.2,38.2,38.2h11.6c21.1,0,38.2-17.1,38.2-38.2H565.1z"/>
				</g>
			</g>
			<g>
				<polygon fill="#D6C2B2" points="727.2,1201 748.5,1303.7 767.2,1205.4 				"/>
				<polygon fill="#C4AFA1" points="743.9,1202.9 774.5,1319.7 790.5,1208 				"/>
				<polygon fill="#B29586" points="774.5,1206.3 809.9,1309 817.2,1211 				"/>
				<g>
					<path fill="#771C36" d="M816.3,1103.4c-6.5,1-11.3,6.4-16.2,10.8s-12.1,8.1-17.9,4.9c-5-2.7-6.4-9-9.3-13.8
						c-4.4-7.6-13.4-12.4-22.2-11.7c-4.1,0.3-8,1.7-11.4,4c-1.7,17.1-3.3,32.9-4.9,46.8c0.4-0.1,0.8-0.1,1.3-0.1
						c8-0.7,16.1,2.8,21.2,9c5.3,6.5,8.7,16.6,17,17.3c8.4,0.7,13.9-9,22.1-11c6.5-1.6,13.2,2.1,18.2,6.5c3.6,3.2,6.8,6.8,10.5,9.9
						c3.5-21.3,5.8-44.1,6.9-67.6C827,1105.1,821.7,1102.6,816.3,1103.4z"/>
					<path fill="#4E0F1F" d="M796,1159.5c-8.1,2-13.7,11.7-22.1,11c-8.4-0.7-11.7-10.8-17-17.3c-5-6.2-13.2-9.7-21.2-9
						c-0.4,0-0.8,0.1-1.3,0.1c-3.1,27.5-5.8,47.7-7.2,56.7l90,10c3-11.2,5.4-22.9,7.5-35.2c-3.7-3-6.9-6.7-10.5-9.9
						C809.2,1161.5,802.5,1157.9,796,1159.5z"/>
					<path fill="#CB3734" d="M760.3,997c6.7,2.2,14.4,5.7,20.4,1.9c4.5-2.9,5.8-8.7,7.7-13.7s5.7-10.4,11-10
						c7.6,0.7,9.1,12,15.7,15.8c3.7,2.1,8.3,1.6,12.6,0.9c0.9-0.1,1.7-0.3,2.6-0.4c-1.8-29.3-4.5-58-7.6-84.9
						c-11.1,6.3-13.8,24.6-26.5,26.6c-10,1.6-17.8-8.4-27.3-11.8c-6-2.2-12.8-1.3-18.3,1.7c-0.6,24.6-1.8,49.5-3.2,73.7
						C751.1,995.4,756.2,995.6,760.3,997z"/>
					<path fill="#952636" d="M814.8,1025.9c-6.1,2.8-9.5,9.3-13.1,15.1c-3.6,5.8-8.7,11.7-15.5,11.8c-9.8,0.2-15.3-10.9-23.3-16.5
						c-5.1-3.6-11.8-5-18-3.7c-1.7,22.9-3.6,44.9-5.6,64.9c3.4-2.3,7.3-3.7,11.4-4c8.8-0.6,17.8,4.1,22.2,11.7
						c2.8,4.9,4.3,11.2,9.3,13.8c5.8,3.1,12.9-0.6,17.9-4.9s9.7-9.8,16.2-10.8c5.4-0.8,10.7,1.7,15.3,4.8
						c1.3-26.7,1.3-54.3,0.4-81.8C826.1,1024.4,820.2,1023.4,814.8,1025.9z"/>
					<path fill="#DC4D3C" d="M768.9,921.4c9.5,3.5,17.3,13.5,27.3,11.8c12.7-2.1,15.4-20.3,26.5-26.6
						C812.2,815.3,797.2,745,797.2,745l-51.7,33.8c5.2,41.7,6.3,92.5,5,144.4C756.1,920.2,762.9,919.3,768.9,921.4z"/>
					<path fill="#AF2E33" d="M827.7,992c-4.2,0.7-8.9,1.2-12.6-0.9c-6.6-3.8-8.1-15.1-15.7-15.8c-5.3-0.5-9.2,4.9-11,10
						s-3.2,10.8-7.7,13.7c-6,3.8-13.7,0.3-20.4-1.9c-4-1.3-9.2-1.6-12.9-0.1c-0.7,12.1-1.5,24-2.4,35.7c6.2-1.3,12.9,0,18,3.7
						c8,5.6,13.5,16.8,23.3,16.5c6.8-0.2,11.9-6.1,15.5-11.8c3.6-5.8,7-12.3,13.1-15.1c5.4-2.5,11.4-1.5,17.2,0.5
						c-0.4-11.6-1-23.3-1.7-34.8C829.4,991.7,828.5,991.8,827.7,992z"/>
				</g>
			</g>
			<g>
				<polygon fill="#D6C2B2" points="1118.5,1004.8 1135.2,1108.3 1156.8,1013.8 				"/>
				<polygon fill="#C4AFA1" points="1148.5,1011.9 1151.2,1124 1193.3,1022.4 				"/>
				<polygon fill="#B29586" points="1179.5,1019.2 1179.5,1118.3 1220.5,1028.8 				"/>
				<g>
					<path fill="#952636" d="M1240.5,870.8c-2.9-1.6-5.5-3.7-7.3-6.6c-3.7-5.8-4.7-14.3-11-16.9c-6.1-2.6-12.7,2.2-16.8,7.5
						c-4,5.2-7.6,11.5-13.8,13.7c-5.5,1.9-11.6-0.1-16.8-2.6s-10.5-5.6-16.3-6.1c-2.1-0.2-4.3,0.1-6.3,0.9
						c-2.5,16.1-5.4,31.7-8.4,46.3c10-5.3,23.4-4.7,31.9,3c7,6.3,11.7,16.7,21,17.9c13.2,1.7,22.5-16.8,35.7-15.2
						c2.7,0.3,5.1,1.5,7.4,3C1240.4,900.7,1240.7,885.7,1240.5,870.8z"/>
					<path fill="#771C36" d="M1196.6,927.8c-9.3-1.2-14-11.6-21-17.9c-8.5-7.7-21.9-8.2-31.9-3c-3.6,17.2-7.3,33.1-10.8,46.8
						c7.6-2.5,16.6-1.3,22.8,3.9c7.5,6.3,11.6,17.6,21.2,19.4c12.6,2.4,22.1-14,34.9-13.9c6.6,0,12.3,4.5,17,9.1
						c1.5,1.4,2.9,2.9,4.4,4.4c3.3-19.6,5.3-40.2,6.4-61.1c-2.3-1.5-4.7-2.7-7.4-3C1219,911,1209.7,929.5,1196.6,927.8z"/>
					<path fill="#4E0F1F" d="M1228.9,972.3c-4.7-4.6-10.4-9-17-9.1c-12.8-0.1-22.3,16.2-34.9,13.9c-9.6-1.8-13.8-13.1-21.2-19.4
						c-6.2-5.2-15.2-6.5-22.8-3.9c-7.9,31-14.3,51.1-14.3,51.1l102,24c5.4-16.1,9.6-33.7,12.7-52.2
						C1231.8,975.2,1230.3,973.7,1228.9,972.3z"/>
					<path fill="#AF2E33" d="M1158.4,859.7c5.8,0.5,11,3.6,16.3,6.1s11.3,4.5,16.8,2.6c6.2-2.2,9.8-8.5,13.8-13.7
						c4-5.2,10.7-10,16.8-7.5c6.4,2.7,7.3,11.1,11,16.9c1.8,2.8,4.3,5,7.3,6.6c-0.3-23.4-1.7-46.6-3.9-68.6
						c-2.4,1.4-4.6,3.1-6.6,5.1c-3.6,3.5-6.4,7.8-10.2,11c-3.8,3.3-9.1,5.5-13.8,3.8c-5.7-1.9-8.2-8.3-12-13
						c-5.8-7.2-15.6-10.8-24.7-9.2c-3.9,0.7-7.5,2.4-10.7,4.8c-1.4,18.8-3.7,37.6-6.6,55.9C1154.1,859.9,1156.3,859.6,1158.4,859.7z
						"/>
					<path fill="#DC4D3C" d="M1177.6,759.9c3.7,1.7,6.8,4.8,10.9,5.4c4.1,0.6,8-1.7,11-4.5c3-2.8,5.2-6.3,8.2-9.2
						c5.5-5.4,13.2-8.3,20.9-8c-6-33-13.7-59.7-21.4-74.8l-55.5,23.7c5.8,20.8,8.4,44.5,8.6,69.5c0.5-0.4,1-0.7,1.5-1.1
						C1166.3,758,1172.5,757.6,1177.6,759.9z"/>
					<path fill="#CB3734" d="M1194.1,809.1c3.8,4.7,6.3,11,12,13c4.7,1.6,10-0.6,13.8-3.8c3.8-3.3,6.6-7.5,10.2-11
						c2-2,4.2-3.7,6.6-5.1c-2.1-20.8-4.9-40.6-8.1-58.5c-7.6-0.3-15.4,2.7-20.9,8c-2.9,2.9-5.2,6.3-8.2,9.2c-3,2.8-6.9,5.1-11,4.5
						c-4-0.6-7.2-3.7-10.9-5.4c-5-2.4-11.3-1.9-15.9,1c-0.5,0.3-1,0.7-1.5,1.1c0.2,14-0.4,28.3-1.5,42.7c3.1-2.4,6.8-4.1,10.7-4.8
						C1178.4,798.3,1188.3,801.9,1194.1,809.1z"/>
				</g>
			</g>
		</g>
	</g>
</g>
</svg>
